<svg xmlns="http://www.w3.org/2000/svg" width="720" height="830" viewBox="14 10 72 83">
  <mask id="f" maskUnits="userSpaceOnUse" x="0" y="0" width="100" height="100">
    <rect x="0" y="0" width="100" height="100" fill="#fff"></rect>
    <circle cx="37" cy="53" r="8" fill="#000"></circle><circle cx="63" cy="53" r="8" fill="#000"></circle>
    <path d="M44.6 64.5 h10.8 a1.6 1.6 0 0 1 1.28 2.56 l-4.6 6.13 a2.6 2.6 0 0 1 -4.16 0 l-4.6 -6.13 A1.6 1.6 0 0 1 44.6 64.5 Z" fill="#000"></path>
  </mask>
  <path d="M17 13 L35 34 H65 L83 13 V78 Q83 90 71 90 H29 Q17 90 17 78 Z" fill="#06b6d4" stroke="#06b6d4" stroke-width="6" stroke-linejoin="round" stroke-linecap="round" mask="url(#f)"></path>
</svg>